<?xml version="1.0" encoding="utf-8"?>
<!-- Generator: Adobe Illustrator 12.0.0, SVG Export Plug-In . SVG Version: 6.00 Build 51448)  -->
<!DOCTYPE svg PUBLIC "-//W3C//DTD SVG 1.1//EN" "http://www.w3.org/Graphics/SVG/1.1/DTD/svg11.dtd" [
	<!ENTITY ns_svg "http://www.w3.org/2000/svg">
	<!ENTITY ns_xlink "http://www.w3.org/1999/xlink">
]>
<svg  version="1.1" id="Layer_1" xmlns="&ns_svg;" xmlns:xlink="&ns_xlink;" width="498.439" height="133.969"
	 viewBox="0 0 498.439 133.969" overflow="visible" enable-background="new 0 0 498.439 133.969" xml:space="preserve">
<path fill-rule="evenodd" clip-rule="evenodd" fill="#003470" d="M386.173,124.826c-1.856,3.21-4.24,5.344-6.094,5.934
	c-3.047,2.14-7.8,3.21-11.51,3.21c-4.764,0-10.307-3.21-13.354-5.934c-3.591-3.21-5.431-8.193-5.431-13.063
	c0-7.594,2.917-14.237,6.873-17.561c5.425-4.747,15.621-7.954,27.658-9.614v-2.733c0-3.203-0.116-5.7-1.19-7.587
	c-0.529-0.954-4.623-2.62-8.464-3.094c-4.903-0.713-7.803,0.359-12.707,0.954V58.483c6.614-2.734,11.514-2.734,19.978-2.734
	c7.94,0,16.945,2.734,20.651,7.596c3.57,3.802,7.273,11.993,7.273,21.719v21.254c0,1.424,0.667,4.027,1.19,4.627
	c0.933,1.3,2.383,1.3,6.087,1.3l-4.237,19.111c0,0-0.779,0.943-3.04,1.543c-3.567,0.83-6.737,1.07-7.273,1.07
	c-3.706,0-8.471-1.07-10.32-2.613c-2.391-1.187-4.9-3.32-6.091-6.05V124.826L386.173,124.826L386.173,124.826z M384.317,114.499
	V99.792c-2.77,0.943-6.62,3.553-7.667,4.743c-1.061,1.297-2.517,3.677-2.517,6.287c0,1.657,0.923,3.557,1.193,3.677
	c1.323,0.83,2.37,1.074,4.753,1.074C381.021,115.573,383.126,115.573,384.317,114.499L384.317,114.499L384.317,114.499z"/>
<path fill-rule="evenodd" clip-rule="evenodd" fill="#003470" d="M309.237,131.416V58.538h25.541v15.186
	c1.718-2.713,6.087-8.659,16.935-14.122v17.926c-12.701,5.94-16.935,16.857-16.935,23.388v30.501H309.237L309.237,131.416
	L309.237,131.416z"/>
<polygon fill-rule="evenodd" clip-rule="evenodd" fill="#003470" points="179.38,58.569 164.953,58.569 176.863,66.4 
	172.366,78.984 183.881,71.383 195.918,78.984 191.42,66.4 203.332,58.211 231.646,58.211 197.639,81.59 227.945,131.083 
	198.835,131.083 180.703,99.515 180.703,131.083 155.827,131.083 155.827,37.438 183.745,37.438 183.745,46.692 179.38,58.569 
	179.38,58.569 "/>
<polygon fill-rule="evenodd" clip-rule="evenodd" fill="#003470" points="427.932,131.523 427.932,37.76 454.01,37.76 
	454.01,131.523 427.932,131.523 427.932,131.523 "/>
<path fill-rule="evenodd" clip-rule="evenodd" fill="#003470" d="M224.961,94.597c0-11.623,3.177-21.001,9.537-27.65
	c6.609-6.761,15.476-10.204,26.459-10.204c11.117,0,19.984,3.443,26.342,10.204c6.48,6.649,9.787,16.027,9.787,27.65
	c0,11.755-3.307,21.129-9.667,27.778c-6.478,6.764-15.345,10.207-26.462,10.207c-10.983,0-19.85-3.326-26.199-10.087
	C228.139,115.841,224.961,106.352,224.961,94.597L224.961,94.597L224.961,94.597z M251.038,94.597
	c0,5.577,0.927,10.095,2.641,13.178c1.72,3.091,4.24,4.754,7.146,4.754c3.18,0,5.557-1.663,7.276-4.754
	c1.851-3.083,2.791-7.601,2.791-13.178c0-5.336-0.94-9.846-2.656-12.934c-1.854-3.207-4.231-4.867-7.411-4.867
	c-2.906,0-5.427,1.66-7.146,4.75C251.964,84.751,251.038,89.261,251.038,94.597L251.038,94.597L251.038,94.597z"/>
<path fill-rule="evenodd" clip-rule="evenodd" fill="#003470" d="M103.581,86.901h14.951v-1.427c0-2.843-0.66-4.987-1.983-6.407
	c-1.187-1.426-3.17-2.26-5.69-2.26c-2.514,0-4.367,0.834-5.426,2.374c-1.323,1.55-1.852,4.04-1.852,7.123V86.901L103.581,86.901
	L103.581,86.901z M140.895,127.256c-3.435,1.66-7.537,3.083-11.509,3.91c-4.232,0.843-8.603,1.426-12.966,1.426
	c-12.439,0-22.234-3.323-28.846-9.854c-6.753-6.768-10.199-16.261-10.199-28.481c0-10.92,3.445-19.943,10.067-26.942
	c6.48-6.999,14.952-10.552,25.271-10.552c9.526,0,17.069,3.077,22.361,9.124c5.425,6.177,8.337,14.965,8.337,25.998
	c0,1.061-0.267,3.206-0.531,5.808v0.363h-39.697c0.271,4.39,1.715,7.72,4.37,9.977c2.777,2.247,7.012,3.319,12.438,3.319
	c2.773,0,6.09-0.362,9.524-0.953c3.443-0.713,7.284-1.896,11.38-3.439V127.256L140.895,127.256L140.895,127.256z"/>
<path fill-rule="evenodd" clip-rule="evenodd" fill="#003470" d="M68.417,131.57H42.615c-8.207,0-14.558-0.594-18.661-1.547
	c-4.235-1.188-8.072-2.96-11.112-5.457c-4.235-3.331-7.545-7.714-9.529-12.817C1.062,106.412,0,99.995,0,92.754
	C0,82.19,2.782,73.41,8.075,66.763c5.292-6.648,12.441-9.967,20.906-9.967c2.516,0,4.899,0.233,7.152,0.827
	c2.113,0.597,4.36,1.54,6.215,2.492V37.802h26.068V131.57L68.417,131.57L68.417,131.57z M42.349,111.389V78.15
	c-1.46-0.473-2.647-0.83-3.444-1.06c-0.926-0.116-1.715-0.243-2.38-0.243c-3.438,0-5.953,1.543-7.673,4.51
	c-1.72,2.857-2.648,7.368-2.648,12.944c0,5.693,0.928,9.963,2.648,12.804c1.855,2.74,4.629,4.284,8.206,4.284H42.349L42.349,111.389
	L42.349,111.389z"/>
<polygon fill-rule="evenodd" clip-rule="evenodd" fill="#003470" points="201.333,35.144 215.981,35.144 220.533,22.718 
	225.059,35.144 239.737,35.144 227.875,43.029 232.399,55.566 220.533,47.829 208.642,55.566 213.163,43.029 201.333,35.144 
	201.333,35.144 "/>
<polygon fill-rule="evenodd" clip-rule="evenodd" fill="#003470" points="236.277,12.414 250.931,12.414 255.488,0 260.004,12.414 
	274.692,12.414 262.829,20.301 267.352,32.852 255.488,25.113 243.594,32.852 248.118,20.301 236.277,12.414 236.277,12.414 "/>
<path fill="#003470" d="M494.232,48.439c-2.727,2.641-5.999,3.958-9.816,3.958c-3.944,0-7.268-1.351-9.969-4.052
	c-2.703-2.703-4.053-6.024-4.053-9.971c0-4.097,1.458-7.502,4.376-10.217c2.74-2.539,5.954-3.805,9.646-3.805
	c3.867,0,7.174,1.369,9.915,4.107c2.74,2.743,4.108,6.044,4.108,9.915C498.439,42.357,497.036,45.711,494.232,48.439L494.232,48.439
	z M476.206,30.236c-2.226,2.284-3.344,4.997-3.344,8.132c0,3.25,1.133,6.012,3.403,8.283c2.253,2.274,4.979,3.409,8.17,3.409
	c3.182,0,5.897-1.141,8.153-3.428c2.254-2.296,3.381-5.052,3.381-8.264c0-3.121-1.122-5.833-3.362-8.132
	c-2.269-2.334-4.99-3.503-8.172-3.503C481.215,26.733,478.475,27.901,476.206,30.236L476.206,30.236z M478.286,46.18V30.613
	c0.964,0,2.403,0.003,4.325,0.011c1.917,0.007,2.984,0.014,3.202,0.029c1.227,0.087,2.245,0.355,3.06,0.801
	c1.376,0.764,2.069,2.003,2.069,3.725c0.001,1.311-0.365,2.256-1.098,2.837c-0.735,0.582-1.634,0.929-2.706,1.042
	c0.979,0.205,1.715,0.499,2.21,0.893c0.916,0.733,1.375,1.894,1.375,3.483v1.393c0,0.152,0.01,0.306,0.032,0.458
	c0.021,0.152,0.063,0.305,0.121,0.458l0.154,0.438h-3.912c-0.126-0.496-0.211-1.212-0.256-2.154
	c-0.044-0.945-0.13-1.578-0.257-1.909c-0.201-0.545-0.581-0.928-1.134-1.142c-0.304-0.128-0.767-0.21-1.385-0.25l-0.894-0.057
	h-0.852v5.511H478.286L478.286,46.18z M485.677,33.632c-0.553-0.218-1.339-0.329-2.352-0.329h-0.983v4.586h1.576
	c0.945,0,1.686-0.192,2.214-0.579c0.531-0.389,0.797-1.014,0.797-1.88C486.929,34.569,486.513,33.968,485.677,33.632L485.677,33.632
	z"/>
</svg>
